<svg width="20" height="22" viewBox="0 0 20 22" fill="none" xmlns="http://www.w3.org/2000/svg">
<path d="M5.25 5.19444V14.0833C5.25 14.6727 5.48705 15.2379 5.90901 15.6547C6.33097 16.0714 6.90326 16.3056 7.5 16.3056H14.25M5.25 5.19444V2.97222C5.25 2.38285 5.48705 1.81762 5.90901 1.40087C6.33097 0.984126 6.90326 0.75 7.5 0.75H12.6592C12.9576 0.750063 13.2437 0.867167 13.4546 1.07556L18.4204 5.98C18.6314 6.18833 18.7499 6.47089 18.75 6.76556V14.0833C18.75 14.6727 18.5129 15.2379 18.091 15.6547C17.669 16.0714 17.0967 16.3056 16.5 16.3056H14.25M5.25 5.19444H3C2.40326 5.19444 1.83097 5.42857 1.40901 5.84532C0.987053 6.26207 0.75 6.8273 0.75 7.41667V18.5278C0.75 19.1171 0.987053 19.6824 1.40901 20.0991C1.83097 20.5159 2.40326 20.75 3 20.75H12C12.5967 20.75 13.169 20.5159 13.591 20.0991C14.0129 19.6824 14.25 19.1171 14.25 18.5278V16.3056" stroke="white" stroke-width="1.5" stroke-linecap="round" stroke-linejoin="round"/>
</svg>
