<svg width="82" height="61" viewBox="0 0 82 61" fill="none" xmlns="http://www.w3.org/2000/svg">
<path d="M28.3861 53.5678C27.9644 52.0227 26.7246 51.207 25.3689 50.6211C23.9006 49.9851 19.9813 49.4822 19.2472 48.2759C17.4312 45.2895 23.7108 44.3096 24.8464 46.4906C25.0312 46.8432 24.9892 47.4204 25.0363 47.4204H28.2282C28.0972 39.8853 13.4782 41.0657 16.0771 48.9447C17.1926 52.3251 21.6008 52.0988 24.1409 53.4399C25.2328 54.0171 25.6629 54.5943 25.3303 55.9337C24.8582 57.8348 19.9192 57.9609 18.844 56.1238C18.6844 55.8508 18.5399 55.0264 18.4828 55.0264H15.4589C15.81 59.6183 19.9393 60.6294 23.7578 60.1938C27.0085 59.824 29.3134 56.9603 28.3861 53.5678ZM10.2494 42.7524V54.7672C10.2494 54.8795 9.7689 55.8784 9.64963 56.0512C8.56438 57.6205 5.40104 57.7449 4.13267 56.3917C3.78156 56.0184 3.1919 54.7291 3.1919 54.2487V42.7524H0V54.2487C0 61.4036 10.75 62.3559 12.9423 56.6717C13.0818 56.3105 13.4413 55.0731 13.4413 54.7672V42.7524H10.2494ZM63.0115 42.7524V60.0383H66.2051V42.7524H63.0115ZM68.725 42.7524C68.6797 42.8786 68.893 42.9598 68.893 43.0117V45.6922H73.7666V60.0383H76.9585V45.6922H82V42.7524H68.725Z" fill="white"/>
<path d="M59.6969 51.1995C59.4465 50.9701 58.628 50.6285 58.5446 50.4313C58.4132 50.1203 58.85 50.1611 59.0825 49.935C61.6784 47.4025 59.9881 42.8304 56.3234 42.3579H47V59.3579H56.5009C56.7016 59.3579 58.454 58.7477 58.731 58.6033C61.3162 57.2418 61.7672 53.1032 59.6969 51.1995ZM50.196 45.249H55.4356C55.5173 45.249 56.0215 45.5074 56.1458 45.589C57.6142 46.5578 56.8329 49.3282 55.4356 49.3282H50.196V45.249ZM56.7601 56.0351C56.627 56.1218 55.8617 56.4685 55.7907 56.4685H50.196V52.0477H55.7907C55.8386 52.0477 56.5346 52.3468 56.6518 52.4148C58.0225 53.2034 58.0758 55.1801 56.7601 56.0351Z" fill="white"/>
<path d="M42.1453 44.0627C41.3743 43.4338 39.2404 42.3579 38.2933 42.3579H31V59.3579H37.6228C44.9396 59.3579 47.5026 48.4325 42.1453 44.0627ZM39.6058 55.5898C39.1968 55.8668 37.7167 56.4685 37.2876 56.4685H34.0172V45.249H37.12C42.1939 45.249 43.6422 52.8601 39.6058 55.5898Z" fill="white"/>
<path d="M56.0948 1.71598C56.1151 0.295091 55.1542 0.0990376 53.9689 0L26.8984 0.0545717C26.0812 0.202117 25.5775 0.660924 25.531 1.5179L25.6261 29.9376C25.9032 30.6168 26.512 30.9826 27.2463 30.9482C35.9725 30.3257 45.7768 31.7405 54.3755 30.9482C55.2068 30.8714 55.9896 30.5763 56.0969 29.6345V1.71598H56.0948ZM49.2073 19.1122C49.2073 21.9055 46.1226 24.6058 43.4385 24.8706C38.2966 25.3819 33.0213 24.8503 32.4407 18.6817C32.0645 14.702 32.6814 10.2878 32.4144 6.27373H49.2073V19.1122Z" fill="#02B075"/>
<path d="M45.9689 9.8127V18.3037C45.9689 18.3764 45.6412 19.5649 45.5765 19.7286C45.2124 20.63 44.5085 21.1555 43.5537 21.3475C42.4918 21.5598 39.2837 21.5739 38.1752 21.4405C37.178 21.3213 36.2334 20.5856 35.9482 19.6235C35.4202 17.8368 35.9199 13.5862 35.8632 11.4195C35.845 10.7202 35.3899 9.9562 35.9542 9.50952H45.6655C45.6877 9.50952 45.9689 9.79046 45.9689 9.8127Z" fill="#02B075"/>
</svg>
