<svg width="22" height="22" viewBox="0 0 22 22" fill="none" xmlns="http://www.w3.org/2000/svg">
<path d="M10.49 16.4525H16.41C16.32 16.5325 16.23 16.6025 16.14 16.6825L11.87 19.8825C10.46 20.9325 8.16001 20.9325 6.74001 19.8825L2.46001 16.6825C1.52001 15.9825 0.75 14.4325 0.75 13.2625V5.8525C0.75 4.6325 1.68001 3.2825 2.82001 2.8525L7.8 0.9825C8.62 0.6725 9.98 0.6725 10.8 0.9825L15.77 2.8525C16.72 3.2125 17.53 4.2125 17.78 5.2325H10.48C10.26 5.2325 10.06 5.24251 9.87 5.24251C8.02 5.35251 7.53999 6.02249 7.53999 8.13249V13.5625C7.54999 15.8625 8.14001 16.4525 10.49 16.4525Z" stroke="white" stroke-width="1.5" stroke-linecap="round" stroke-linejoin="round"/>
<path d="M7.54999 9.92261H20.75" stroke="white" stroke-width="1.5" stroke-miterlimit="10" stroke-linecap="round" stroke-linejoin="round"/>
<path d="M20.75 8.12241V13.6724C20.73 15.8924 20.12 16.4424 17.81 16.4424H10.49C8.13999 16.4424 7.54999 15.8524 7.54999 13.5424V8.1124C7.54999 6.0124 8.02999 5.34238 9.87999 5.22238C10.07 5.22238 10.27 5.2124 10.49 5.2124H17.81C20.16 5.2224 20.75 5.80241 20.75 8.12241Z" stroke="white" stroke-width="1.5" stroke-linecap="round" stroke-linejoin="round"/>
<path d="M10.07 13.9624H11.4" stroke="white" stroke-width="1.5" stroke-miterlimit="10" stroke-linecap="round" stroke-linejoin="round"/>
<path d="M13.5 13.9624H16.77" stroke="white" stroke-width="1.5" stroke-miterlimit="10" stroke-linecap="round" stroke-linejoin="round"/>
</svg>
