<svg width="110" height="28" viewBox="0 0 110 28" fill="none" xmlns="http://www.w3.org/2000/svg">
<path d="M61.5497 16.6918C61.1701 15.341 60.0542 14.6279 58.8339 14.1157C57.5124 13.5597 53.9847 13.12 53.3239 12.0654C51.6894 9.45456 57.3415 8.59788 58.3637 10.5046C58.53 10.8129 58.4922 11.3175 58.5346 11.3175H61.4075C61.2896 4.72997 48.1314 5.76192 50.4706 12.6501C51.4746 15.6054 55.4423 15.4075 57.7286 16.58C58.7115 17.0846 59.0986 17.5893 58.7992 18.7602C58.3743 20.4222 53.9288 20.5325 52.961 18.9264C52.8174 18.6877 52.6873 17.967 52.6359 17.967H49.9142C50.2302 21.9814 53.9469 22.8653 57.3839 22.4846C60.3097 22.1612 62.3843 19.6577 61.5497 16.6918ZM45.2252 7.23656V17.7403C45.2252 17.8386 44.7928 18.7119 44.6854 18.8629C43.7086 20.2348 40.8613 20.3436 39.7197 19.1606C39.4037 18.8342 38.873 17.7071 38.873 17.2871V7.23656H36V17.2871C36 23.5422 45.6758 24.3747 47.6491 19.4054C47.7746 19.0896 48.0982 18.0078 48.0982 17.7403V7.23656H45.2252ZM92.7152 7.23656V22.3486H95.5896V7.23656H92.7152ZM97.8578 7.23656C97.8169 7.34685 98.009 7.41787 98.009 7.46319V9.8066H102.396V22.3486H105.268V9.8066H109.806V7.23656H97.8578Z" fill="white"/>
<path d="M89.4627 15.0963C89.2495 14.8923 88.5524 14.5886 88.4813 14.4134C88.3694 14.1369 88.7414 14.1731 88.9395 13.9722C91.1502 11.7209 89.7107 7.6566 86.5897 7.23657H78.6498V22.3486H86.7409C86.9118 22.3486 88.4042 21.8062 88.6401 21.6778C90.8417 20.4675 91.2258 16.7885 89.4627 15.0963ZM81.3715 9.80661H85.8337C85.9032 9.80661 86.3327 10.0363 86.4385 10.1088C87.689 10.97 87.0237 13.4328 85.8337 13.4328H81.3715V9.80661ZM86.9617 19.3948C86.8483 19.4718 86.1966 19.7801 86.1361 19.7801H81.3715V15.8502H86.1361C86.1769 15.8502 86.7697 16.1161 86.8695 16.1766C88.0368 16.8776 88.0821 18.6348 86.9617 19.3948Z" fill="white"/>
<path d="M73.8822 8.75201C73.1866 8.19297 71.2618 7.23657 70.4074 7.23657H63.8284V22.3486H69.8026C76.4028 22.3486 78.7148 12.6365 73.8822 8.75201ZM71.5914 18.9989C71.2225 19.2452 69.8873 19.7801 69.5002 19.7801H66.5501V9.80661H69.349C73.9261 9.80661 75.2325 16.5724 71.5914 18.9989Z" fill="white"/>
<path d="M27.4323 1.54016C27.4505 0.264857 26.5881 0.0888904 25.5242 0L1.22728 0.0489804C0.493818 0.181409 0.0417567 0.593208 0 1.36238L0.0853289 26.8703C0.334054 27.4798 0.880522 27.8082 1.53955 27.7774C9.37166 27.2186 18.1714 28.4885 25.8892 27.7774C26.6353 27.7084 27.3379 27.4436 27.4342 26.5982V1.54016H27.4323ZM21.2505 17.154C21.2505 19.6611 18.4819 22.0847 16.0727 22.3224C11.4577 22.7814 6.72283 22.3042 6.20178 16.7676C5.86409 13.1957 6.41782 9.23372 6.17818 5.63094H21.2505V17.154Z" fill="#02B075"/>
<path d="M18.3439 8.80741V16.4284C18.3439 16.4937 18.0498 17.5604 17.9917 17.7073C17.6649 18.5164 17.0331 18.9881 16.1762 19.1604C15.223 19.3509 12.3436 19.3636 11.3488 19.2439C10.4537 19.1368 9.60586 18.4765 9.34988 17.613C8.87603 16.0093 9.32446 12.1943 9.27362 10.2496C9.25728 9.62193 8.84879 8.93621 9.35532 8.53529H18.0716C18.0916 8.53529 18.3439 8.78745 18.3439 8.80741Z" fill="#02B075"/>
</svg>
