<svg width="19" height="20" viewBox="0 0 19 20" fill="none" xmlns="http://www.w3.org/2000/svg">
<path d="M9.5 0C4.25328 0 0 4.33723 0 9.6875C0 15.0378 4.25328 19.375 9.5 19.375C14.7467 19.375 19 15.0378 19 9.6875C19 4.33723 14.7467 0 9.5 0ZM13.9034 6.58828C13.7604 8.12012 13.1418 11.8374 12.827 13.5531C12.6938 14.2791 12.4316 14.5225 12.1778 14.5463C11.6262 14.5981 11.2072 14.1745 10.6728 13.8173C9.83671 13.2584 9.36436 12.9105 8.55272 12.3651C7.61479 11.7348 8.22283 11.3886 8.75735 10.8221C8.89725 10.674 11.328 8.41941 11.375 8.21488C11.3809 8.1893 11.3865 8.09379 11.3308 8.04363C11.2751 7.99348 11.1933 8.01047 11.1341 8.0241C11.0503 8.04353 9.71455 8.94382 7.12695 10.725C6.74785 10.9904 6.40444 11.1198 6.09674 11.113C5.75754 11.1055 5.10506 10.9175 4.61999 10.7566C4.02505 10.5595 3.5522 10.4552 3.59337 10.1203C3.61483 9.9458 3.85041 9.76741 4.30013 9.58512C7.06958 8.3547 8.91631 7.5435 9.84031 7.15152C12.4786 6.0325 13.0268 5.83812 13.3841 5.83164C13.4627 5.83031 13.6384 5.85016 13.7522 5.94434C13.8279 6.01143 13.8762 6.10505 13.8874 6.20668C13.9067 6.33287 13.9121 6.46087 13.9034 6.58828Z" fill="white"/>
</svg>
