<svg width="7.2586322mm" height="7.4083409mm" viewBox="0 0 7.2586322 7.4083409" version="1.1" xmlns="http://www.w3.org/2000/svg"><g transform="translate(-101.33542,-145.78542)"><g transform="matrix(0.26458333,0,0,0.26458333,101.33542,145.78542)"><path d="M 27.4323,1.54016 C 27.4505,0.264857 26.5881,0.0888904 25.5242,0 L 1.22728,0.0489804 C 0.493818,0.181409 0.0417567,0.593208 0,1.36238 L 0.0853289,26.8703 c 0.2487251,0.6095 0.7951931,0.9379 1.4542211,0.9071 7.83211,-0.5588 16.63185,0.7111 24.34965,0 0.7461,-0.069 1.4487,-0.3338 1.545,-1.1792 V 1.54016 Z M 21.2505,17.154 c 0,2.5071 -2.7686,4.9307 -5.1778,5.1684 -4.615,0.459 -9.34987,-0.0182 -9.87092,-5.5548 C 5.86409,13.1957 6.41782,9.23372 6.17818,5.63094 H 21.2505 Z" fill="#02b075" style="display:inline" /><path d="m 18.3439,8.80741 v 7.62099 c 0,0.0653 -0.2941,1.132 -0.3522,1.2789 -0.3268,0.8091 -0.9586,1.2808 -1.8155,1.4531 -0.9532,0.1905 -3.8326,0.2032 -4.8274,0.0835 C 10.4537,19.1368 9.60586,18.4765 9.34988,17.613 8.87603,16.0093 9.32446,12.1943 9.27362,10.2496 9.25728,9.62193 8.84879,8.93621 9.35532,8.53529 h 8.71628 c 0.02,0 0.2723,0.25216 0.2723,0.27212 z" fill="#02b075" style="display:inline" /></g></g></svg>
